<?xml version="1.0" encoding="UTF-8"?>
<!-- Generated by Pixelmator Pro 2.4.5 -->
<svg width="2218" height="321" viewBox="0 0 2218 321" xmlns="http://www.w3.org/2000/svg" xmlns:xlink="http://www.w3.org/1999/xlink">
    <path id="Shape" fill="none" stroke="none" opacity="0" d="M 14 316 L 2205 316 L 2205 5 L 14 5 Z"/>
    <path id="compartilhagram" fill="#646464" fill-rule="evenodd" stroke="none" d="M 2125.392578 212.854004 L 2125.392578 226 L 2070.51709 226 L 2070.51709 144.711914 C 2070.51709 134.741806 2069.130127 126.701523 2066.356201 120.59082 C 2063.582275 114.480118 2058.376221 111.424805 2050.737793 111.424805 C 2045.270264 111.424805 2040.96875 113.233871 2037.833008 116.852051 C 2034.697266 120.47023 2032.486206 125.193893 2031.199707 131.023193 C 2029.913208 136.852493 2029.27002 143.063614 2029.27002 149.656738 L 2029.27002 196.813477 C 2029.27002 203.406616 2030.797729 207.728271 2033.853027 209.778564 C 2036.908325 211.828857 2041.330566 212.854004 2047.119629 212.854004 L 2047.843262 212.854004 L 2047.843262 226 L 1971.982422 226 L 1971.982422 212.854004 L 1972.464844 212.854004 C 1978.575562 212.854004 1983.319336 211.788666 1986.696289 209.657959 C 1990.073242 207.527252 1991.761719 202.924194 1991.761719 195.848633 L 1991.761719 122.038086 C 1991.761719 115.364548 1990.234009 111.022797 1987.178711 109.012695 C 1984.123413 107.002594 1979.701172 105.997559 1973.912109 105.997559 L 1973.188477 105.997559 L 1973.188477 93.575195 L 2025.048828 93.575195 L 2028.305176 111.183594 L 2029.51123 111.183594 C 2034.255127 102.339142 2039.621948 96.670746 2045.612061 94.178223 C 2051.602051 91.685699 2058.818359 90.439453 2067.260742 90.439453 C 2076.346436 90.439453 2084.105225 92.067612 2090.537598 95.323975 C 2096.969971 98.580338 2101.673584 103.866821 2104.648438 111.183594 L 2106.819336 111.183594 C 2111.563232 102.258743 2117.171387 96.570236 2123.643799 94.11792 C 2130.116211 91.665604 2137.61377 90.439453 2146.136719 90.439453 C 2152.488525 90.439453 2158.217285 91.36409 2163.322998 93.213379 C 2168.428711 95.062668 2172.710205 97.916977 2176.16748 101.776367 C 2179.705322 105.635757 2182.378662 110.56044 2184.187744 116.550537 C 2185.996826 122.540634 2186.901367 129.716599 2186.901367 138.078613 L 2186.901367 195.366211 C 2186.901367 202.522171 2188.167725 207.225739 2190.700439 209.477051 C 2193.233154 211.728363 2197.474365 212.854004 2203.424316 212.854004 L 2204.147949 212.854004 L 2204.147949 226 L 2149.272461 226 L 2149.272461 144.711914 C 2149.272461 134.098587 2147.805176 125.897491 2144.870361 120.108398 C 2141.935547 114.319305 2136.850098 111.424805 2129.61377 111.424805 C 2124.387451 111.424805 2120.186523 113.073059 2117.010498 116.369629 C 2113.834473 119.666199 2111.542969 123.987854 2110.135986 129.334717 C 2108.729004 134.68158 2108.025391 140.490692 2108.025391 146.762207 L 2108.025391 195.366211 C 2108.025391 202.522171 2109.291748 207.225739 2111.824463 209.477051 C 2114.357178 211.728363 2118.638672 212.854004 2124.668945 212.854004 Z M 1890.453125 105.515137 C 1884.020752 105.515137 1879.658936 108.067932 1877.367432 113.173584 C 1875.075928 118.279236 1873.930176 124.610962 1873.930176 132.168945 C 1862.834473 132.168945 1854.492676 130.922699 1848.904541 128.430176 C 1843.316406 125.937653 1840.522461 121.6763 1840.522461 115.645996 C 1840.522461 111.143372 1841.869263 107.284027 1844.562744 104.067871 C 1847.256226 100.851715 1850.934692 98.238617 1855.598145 96.228516 C 1860.181152 94.218414 1865.548096 92.751068 1871.698975 91.826416 C 1877.849854 90.901764 1884.422852 90.439453 1891.417969 90.439453 C 1900.101563 90.439453 1907.679565 91.183182 1914.1521 92.670654 C 1920.624634 94.158127 1926.031738 96.55011 1930.373535 99.84668 C 1938.976807 106.520218 1943.27832 117.374603 1943.27832 132.410156 L 1943.27832 195.366211 C 1943.27832 201.878937 1944.343628 206.421692 1946.474365 208.994629 C 1948.605103 211.567566 1952.484497 212.854004 1958.112793 212.854004 L 1959.077637 212.854004 L 1959.077637 226 L 1913.126953 226 L 1907.940918 208.994629 L 1905.77002 208.994629 C 1901.991089 213.497253 1898.473389 217.195786 1895.217041 220.090332 C 1891.960693 222.984879 1888.322388 225.095459 1884.302246 226.422119 C 1880.282104 227.748779 1875.176514 228.412109 1868.985352 228.412109 C 1863.517822 228.412109 1858.452515 227.608078 1853.789063 226 C 1849.12561 224.391922 1845.025024 221.899429 1841.487305 218.522461 C 1838.029907 215.225891 1835.276123 211.065048 1833.22583 206.039795 C 1831.175537 201.014542 1830.150391 195.084839 1830.150391 188.250488 C 1830.150391 174.823013 1834.753418 164.893265 1843.959717 158.460938 C 1853.166016 152.02861 1867.015381 148.531097 1885.508301 147.968262 L 1905.77002 147.244629 L 1905.77002 133.616211 C 1905.77002 125.414993 1904.925781 118.681259 1903.237305 113.414795 C 1901.548828 108.148331 1897.287476 105.515137 1890.453125 105.515137 Z M 1868.50293 189.215332 C 1868.50293 203.366455 1873.16626 210.441895 1882.493164 210.441895 C 1889.890381 210.441895 1895.619019 207.46698 1899.679443 201.51709 C 1903.739868 195.5672 1905.77002 188.009323 1905.77002 178.843262 L 1905.77002 160.27002 L 1894.674316 160.993652 C 1885.106201 161.476074 1878.352417 164.02887 1874.412598 168.6521 C 1870.472778 173.27533 1868.50293 180.129669 1868.50293 189.215332 Z M 1769.365234 212.854004 L 1777.325195 212.854004 L 1777.325195 226 L 1694.831055 226 L 1694.831055 212.854004 L 1695.554688 212.854004 C 1701.74585 212.854004 1706.469482 211.708267 1709.72583 209.416748 C 1712.982178 207.125229 1714.610352 202.361359 1714.610352 195.125 L 1714.610352 123.485352 C 1714.610352 116.570602 1713.102783 112.047943 1710.087646 109.917236 C 1707.07251 107.78653 1702.630249 106.721191 1696.760742 106.721191 L 1696.037109 106.721191 L 1696.037109 93.575195 L 1745.967773 93.575195 L 1750.912598 112.87207 L 1752.118652 112.87207 C 1755.495605 105.072876 1759.716797 99.424576 1764.782227 95.927002 C 1769.847656 92.429428 1777.244751 90.680664 1786.973633 90.680664 C 1805.86853 90.680664 1815.315918 97.354095 1815.315918 110.701172 C 1815.315918 118.259155 1812.582275 124.128555 1807.114746 128.30957 C 1801.647217 132.490585 1793.928589 134.581055 1783.958496 134.581055 C 1783.958496 128.229141 1783.194702 123.22406 1781.666992 119.565674 C 1780.139282 115.907288 1776.883057 114.078125 1771.897949 114.078125 C 1767.716919 114.078125 1764.299805 115.625885 1761.646484 118.721436 C 1758.993164 121.816986 1756.983032 125.455215 1755.616211 129.63623 C 1754.651367 132.530777 1753.927734 135.425278 1753.445313 138.319824 C 1752.882446 141.294769 1752.52063 144.108871 1752.359863 146.762207 C 1752.199097 149.415543 1752.118652 151.707016 1752.118652 153.636719 L 1752.118652 196.331055 C 1752.118652 203.165405 1753.606079 207.627747 1756.581055 209.718262 C 1759.55603 211.808777 1763.817383 212.854004 1769.365234 212.854004 Z M 1688.680176 98.278809 C 1688.680176 102.620621 1687.293213 106.057846 1684.519287 108.590576 C 1681.745361 111.123306 1677.262939 112.389648 1671.071777 112.389648 C 1671.071777 109.173492 1670.147095 106.640793 1668.297852 104.791504 C 1666.448608 102.942215 1664.237427 102.017578 1661.664551 102.017578 C 1660.297729 102.017578 1658.830322 102.298981 1657.262451 102.861816 C 1655.69458 103.424652 1654.468384 104.027664 1653.583984 104.670898 C 1656.960938 108.369492 1659.815308 113.113251 1662.146973 118.902344 C 1664.478638 124.691437 1665.644531 130.440231 1665.644531 136.148926 C 1665.644531 142.340042 1664.659546 148.068741 1662.689697 153.335205 C 1660.719849 158.601669 1657.68457 163.164536 1653.583984 167.023926 C 1649.483398 170.883331 1644.297363 173.898438 1638.025879 176.069336 C 1631.754395 178.240234 1624.317139 179.325684 1615.713867 179.325684 C 1613.703735 179.325684 1611.110718 179.225189 1607.934814 179.02417 C 1604.758911 178.823151 1602.608032 178.682465 1601.482422 178.602051 C 1599.231079 179.808105 1597.180786 181.496582 1595.331543 183.66748 C 1593.4823 185.838379 1592.557617 188.330872 1592.557617 191.14502 C 1592.557617 193.878754 1593.622925 195.888824 1595.753662 197.175293 C 1597.884399 198.461761 1600.678345 199.10498 1604.135742 199.10498 L 1634.045898 199.10498 C 1642.24707 199.10498 1649.32251 199.969315 1655.272461 201.697998 C 1661.222412 203.426682 1666.167114 205.899078 1670.106934 209.115234 C 1673.966309 212.33139 1676.820679 216.291229 1678.669922 220.994873 C 1680.519165 225.698517 1681.443848 230.984985 1681.443848 236.854492 C 1681.443848 252.452881 1675.614624 264.352509 1663.956055 272.553711 C 1658.086548 276.654327 1650.649292 279.81012 1641.644043 282.02124 C 1632.638794 284.232361 1622.025635 285.337891 1609.804199 285.337891 C 1571.290649 285.337891 1552.03418 273.880493 1552.03418 250.965332 C 1552.03418 242.12088 1554.888428 235.346954 1560.597168 230.643311 C 1566.305908 225.939667 1574.587402 223.145676 1585.441895 222.26123 C 1580.697998 220.411926 1576.496948 217.698334 1572.838623 214.120361 C 1569.180298 210.542389 1567.351074 205.939316 1567.351074 200.311035 C 1567.351074 194.682755 1569.501831 189.81839 1573.803467 185.717773 C 1578.105103 181.617157 1583.270996 177.838226 1589.30127 174.380859 C 1581.743286 171.647125 1575.652832 166.963654 1571.029541 160.330322 C 1566.40625 153.696991 1564.094727 145.636597 1564.094727 136.148926 C 1564.094727 121.676193 1568.295776 110.439896 1576.697998 102.439697 C 1585.10022 94.439499 1598.105347 90.439453 1615.713867 90.439453 C 1621.583374 90.439453 1627.03064 91.183182 1632.055908 92.670654 C 1637.081177 94.158127 1641.442993 95.947098 1645.141602 98.037598 C 1648.357788 94.580231 1651.915649 91.404312 1655.815186 88.509766 C 1659.714722 85.615219 1664.719849 84.167969 1670.830566 84.167969 C 1676.298096 84.167969 1680.639771 85.494614 1683.855957 88.147949 C 1687.072144 90.801285 1688.680176 94.178207 1688.680176 98.278809 Z M 1597.743652 136.148926 C 1597.743652 144.350143 1598.969849 151.164276 1601.422119 156.591553 C 1603.87439 162.018829 1608.397095 164.732422 1614.990234 164.732422 C 1621.744141 164.732422 1626.246704 162.038925 1628.498047 156.651855 C 1630.74939 151.264786 1631.875 144.309937 1631.875 135.787109 C 1631.875 127.183884 1630.709106 119.947617 1628.377441 114.078125 C 1626.045776 108.208633 1621.50293 105.273926 1614.749023 105.273926 C 1608.155884 105.273926 1603.673462 108.268936 1601.301514 114.259033 C 1598.929565 120.24913 1597.743652 127.5457 1597.743652 136.148926 Z M 1581.220703 250.48291 C 1581.220703 263.829987 1590.909302 270.503418 1610.286621 270.503418 C 1624.759399 270.503418 1635.292114 268.412933 1641.885254 264.231934 C 1648.478394 260.050934 1651.774902 253.900101 1651.774902 245.779297 C 1651.774902 240.55304 1650.126587 236.894699 1646.830078 234.804199 C 1643.533569 232.713699 1638.548584 231.668457 1631.875 231.668457 L 1603.170898 231.668457 C 1597.381836 231.668457 1592.276245 232.934799 1587.854004 235.467529 C 1583.431763 238.000259 1581.220703 243.005341 1581.220703 250.48291 Z M 1474.967285 105.515137 C 1468.534912 105.515137 1464.173096 108.067932 1461.881592 113.173584 C 1459.590088 118.279236 1458.444336 124.610962 1458.444336 132.168945 C 1447.348633 132.168945 1439.006836 130.922699 1433.418701 128.430176 C 1427.830566 125.937653 1425.036621 121.6763 1425.036621 115.645996 C 1425.036621 111.143372 1426.383423 107.284027 1429.076904 104.067871 C 1431.770386 100.851715 1435.448853 98.238617 1440.112305 96.228516 C 1444.695313 94.218414 1450.062256 92.751068 1456.213135 91.826416 C 1462.364014 90.901764 1468.937012 90.439453 1475.932129 90.439453 C 1484.615723 90.439453 1492.193726 91.183182 1498.66626 92.670654 C 1505.138794 94.158127 1510.545898 96.55011 1514.887695 99.84668 C 1523.490967 106.520218 1527.79248 117.374603 1527.79248 132.410156 L 1527.79248 195.366211 C 1527.79248 201.878937 1528.857788 206.421692 1530.988525 208.994629 C 1533.119263 211.567566 1536.998657 212.854004 1542.626953 212.854004 L 1543.591797 212.854004 L 1543.591797 226 L 1497.641113 226 L 1492.455078 208.994629 L 1490.28418 208.994629 C 1486.505249 213.497253 1482.987549 217.195786 1479.731201 220.090332 C 1476.474854 222.984879 1472.836548 225.095459 1468.816406 226.422119 C 1464.796265 227.748779 1459.690674 228.412109 1453.499512 228.412109 C 1448.031982 228.412109 1442.966675 227.608078 1438.303223 226 C 1433.639771 224.391922 1429.539185 221.899429 1426.001465 218.522461 C 1422.544067 215.225891 1419.790283 211.065048 1417.73999 206.039795 C 1415.689697 201.014542 1414.664551 195.084839 1414.664551 188.250488 C 1414.664551 174.823013 1419.267578 164.893265 1428.473877 158.460938 C 1437.680176 152.02861 1451.529541 148.531097 1470.022461 147.968262 L 1490.28418 147.244629 L 1490.28418 133.616211 C 1490.28418 125.414993 1489.439941 118.681259 1487.751465 113.414795 C 1486.062988 108.148331 1481.801636 105.515137 1474.967285 105.515137 Z M 1453.01709 189.215332 C 1453.01709 203.366455 1457.68042 210.441895 1467.007324 210.441895 C 1474.404541 210.441895 1480.133179 207.46698 1484.193604 201.51709 C 1488.254028 195.5672 1490.28418 188.009323 1490.28418 178.843262 L 1490.28418 160.27002 L 1479.188477 160.993652 C 1469.620361 161.476074 1462.866577 164.02887 1458.926758 168.6521 C 1454.986938 173.27533 1453.01709 180.129669 1453.01709 189.215332 Z M 1397.176758 212.854004 L 1397.176758 226 L 1342.30127 226 L 1342.30127 144.711914 C 1342.30127 134.741806 1340.914307 126.701523 1338.140381 120.59082 C 1335.366455 114.480118 1330.1604 111.424805 1322.521973 111.424805 C 1317.054443 111.424805 1312.75293 113.233871 1309.617188 116.852051 C 1306.481445 120.47023 1304.270386 125.193893 1302.983887 131.023193 C 1301.697388 136.852493 1301.054199 143.063614 1301.054199 149.656738 L 1301.054199 196.813477 C 1301.054199 203.406616 1302.581909 207.728271 1305.637207 209.778564 C 1308.692505 211.828857 1313.114746 212.854004 1318.903809 212.854004 L 1319.627441 212.854004 L 1319.627441 226 L 1243.766602 226 L 1243.766602 212.854004 L 1244.249023 212.854004 C 1250.359741 212.854004 1255.103516 211.788666 1258.480469 209.657959 C 1261.857422 207.527252 1263.545898 202.924194 1263.545898 195.848633 L 1263.545898 66.438965 C 1263.545898 60.408661 1261.696655 56.388519 1257.998047 54.378418 C 1254.299438 52.368317 1250.279297 51.363281 1245.9375 51.363281 L 1243.042969 51.363281 L 1243.042969 38.337891 L 1301.054199 38.337891 L 1301.054199 78.981934 C 1301.054199 82.19809 1300.953735 85.655411 1300.752686 89.354004 C 1300.551636 93.052597 1300.330566 96.469711 1300.089355 99.605469 C 1299.928589 101.454758 1299.7677 103.28392 1299.606934 105.093018 C 1299.446167 106.902115 1299.285278 108.691071 1299.124512 110.459961 L 1301.29541 110.459961 C 1306.039307 101.615509 1311.406128 96.067719 1317.39624 93.816406 C 1323.386353 91.565094 1330.602539 90.439453 1339.044922 90.439453 C 1345.396851 90.439453 1351.125488 91.36409 1356.231201 93.213379 C 1361.336914 95.062668 1365.618286 97.916977 1369.075684 101.776367 C 1372.613403 105.635757 1375.286865 110.56044 1377.095947 116.550537 C 1378.905029 122.540634 1379.80957 129.716599 1379.80957 138.078613 L 1379.80957 195.366211 C 1379.80957 202.522171 1381.075928 207.225739 1383.608643 209.477051 C 1386.141357 211.728363 1390.422852 212.854004 1396.453125 212.854004 Z M 1156.086426 226 L 1156.086426 212.854004 L 1158.980957 212.854004 C 1163.483643 212.854004 1167.543945 211.768555 1171.162109 209.597656 C 1174.780273 207.426758 1176.589355 203.165405 1176.589355 196.813477 L 1176.589355 66.438965 C 1176.589355 60.408661 1174.740112 56.388519 1171.041504 54.378418 C 1167.342896 52.368317 1163.322754 51.363281 1158.980957 51.363281 L 1156.086426 51.363281 L 1156.086426 38.337891 L 1214.097656 38.337891 L 1214.097656 196.813477 C 1214.097656 203.165405 1215.92688 207.426758 1219.585205 209.597656 C 1223.24353 211.768555 1227.283813 212.854004 1231.706055 212.854004 L 1234.600586 212.854004 L 1234.600586 226 Z M 1086.135254 53.53418 C 1086.135254 47.423462 1088.125244 42.94101 1092.105225 40.08667 C 1096.085205 37.23233 1101.090332 35.805176 1107.120605 35.805176 C 1112.990112 35.805176 1117.995117 37.23233 1122.135986 40.08667 C 1126.276855 42.94101 1128.347168 47.423462 1128.347168 53.53418 C 1128.347168 59.48407 1126.256714 63.946442 1122.075684 66.921387 C 1117.894653 69.896332 1112.909668 71.383789 1107.120605 71.383789 C 1101.090332 71.383789 1096.085205 69.896332 1092.105225 66.921387 C 1088.125244 63.946442 1086.135254 59.48407 1086.135254 53.53418 Z M 1069.129883 226 L 1069.129883 212.854004 L 1072.024414 212.854004 C 1076.5271 212.854004 1080.587402 211.768555 1084.205566 209.597656 C 1087.82373 207.426758 1089.632813 203.165405 1089.632813 196.813477 L 1089.632813 121.796875 C 1089.632813 115.766571 1087.783569 111.746429 1084.084961 109.736328 C 1080.386353 107.726227 1076.366211 106.721191 1072.024414 106.721191 L 1069.129883 106.721191 L 1069.129883 93.575195 L 1127.141113 93.575195 L 1127.141113 196.813477 C 1127.141113 203.165405 1128.970337 207.426758 1132.628662 209.597656 C 1136.286987 211.768555 1140.327271 212.854004 1144.749512 212.854004 L 1147.644043 212.854004 L 1147.644043 226 Z M 1042.476074 208.512207 C 1045.692261 208.512207 1048.7677 208.291107 1051.702393 207.848877 C 1054.637085 207.406647 1057.390991 206.863937 1059.963867 206.220703 L 1059.963867 222.26123 C 1056.747681 223.78891 1051.943604 225.195953 1045.551514 226.482422 C 1039.159424 227.76889 1032.305054 228.412109 1024.988281 228.412109 C 1019.44043 228.412109 1014.415222 227.748779 1009.912598 226.422119 C 1005.409973 225.095459 1001.59082 222.864273 998.455078 219.728516 C 995.319336 216.673157 992.907227 212.673126 991.21875 207.728271 C 989.530273 202.783417 988.686035 196.692902 988.686035 189.456543 L 988.686035 110.459961 L 970.112793 110.459961 L 970.112793 97.796387 C 975.419434 97.796387 980.163208 96.751144 984.344238 94.660645 C 988.525269 92.570145 991.861938 90.158051 994.354492 87.424316 C 999.339539 82.198059 1003.118469 74.03717 1005.691406 62.941406 L 1026.194336 62.941406 L 1026.194336 93.575195 L 1057.792969 93.575195 L 1057.792969 110.459961 L 1026.194336 110.459961 L 1026.194336 186.923828 C 1026.194336 194.401398 1027.460693 199.868805 1029.993408 203.326172 C 1032.526123 206.783539 1036.687012 208.512207 1042.476074 208.512207 Z M 915.237305 212.854004 L 923.197266 212.854004 L 923.197266 226 L 840.703125 226 L 840.703125 212.854004 L 841.426758 212.854004 C 847.617859 212.854004 852.341553 211.708267 855.5979 209.416748 C 858.854248 207.125229 860.482422 202.361359 860.482422 195.125 L 860.482422 123.485352 C 860.482422 116.570602 858.974854 112.047943 855.959717 109.917236 C 852.94458 107.78653 848.502319 106.721191 842.632813 106.721191 L 841.90918 106.721191 L 841.90918 93.575195 L 891.839844 93.575195 L 896.784668 112.87207 L 897.990723 112.87207 C 901.367676 105.072876 905.588867 99.424576 910.654297 95.927002 C 915.719727 92.429428 923.116821 90.680664 932.845703 90.680664 C 951.740662 90.680664 961.187988 97.354095 961.187988 110.701172 C 961.187988 118.259155 958.454285 124.128555 952.986816 128.30957 C 947.519348 132.490585 939.800659 134.581055 929.830566 134.581055 C 929.830566 128.229141 929.066711 123.22406 927.539063 119.565674 C 926.011414 115.907288 922.755066 114.078125 917.77002 114.078125 C 913.588989 114.078125 910.171875 115.625885 907.518555 118.721436 C 904.865234 121.816986 902.855164 125.455215 901.488281 129.63623 C 900.523438 132.530777 899.799805 135.425278 899.317383 138.319824 C 898.754578 141.294769 898.392761 144.108871 898.231934 146.762207 C 898.071106 149.415543 897.990723 151.707016 897.990723 153.636719 L 897.990723 196.331055 C 897.990723 203.165405 899.478149 207.627747 902.453125 209.718262 C 905.428101 211.808777 909.689453 212.854004 915.237305 212.854004 Z M 759.173828 105.515137 C 752.741516 105.515137 748.379639 108.067932 746.088135 113.173584 C 743.796631 118.279236 742.650879 124.610962 742.650879 132.168945 C 731.555115 132.168945 723.213318 130.922699 717.625244 128.430176 C 712.03717 125.937653 709.243164 121.6763 709.243164 115.645996 C 709.243164 111.143372 710.589905 107.284027 713.283447 104.067871 C 715.97699 100.851715 719.655396 98.238617 724.318848 96.228516 C 728.901855 94.218414 734.268738 92.751068 740.419678 91.826416 C 746.570618 90.901764 753.143494 90.439453 760.138672 90.439453 C 768.822327 90.439453 776.400269 91.183182 782.872803 92.670654 C 789.345337 94.158127 794.752441 96.55011 799.094238 99.84668 C 807.697449 106.520218 811.999023 117.374603 811.999023 132.410156 L 811.999023 195.366211 C 811.999023 201.878937 813.064331 206.421692 815.195068 208.994629 C 817.325806 211.567566 821.2052 212.854004 826.833496 212.854004 L 827.79834 212.854004 L 827.79834 226 L 781.847656 226 L 776.661621 208.994629 L 774.490723 208.994629 C 770.711731 213.497253 767.194092 217.195786 763.937744 220.090332 C 760.681396 222.984879 757.043152 225.095459 753.022949 226.422119 C 749.002747 227.748779 743.897156 228.412109 737.706055 228.412109 C 732.238586 228.412109 727.173218 227.608078 722.509766 226 C 717.846313 224.391922 713.745789 221.899429 710.208008 218.522461 C 706.75061 215.225891 703.996826 211.065048 701.946533 206.039795 C 699.89624 201.014542 698.871094 195.084839 698.871094 188.250488 C 698.871094 174.823013 703.474182 164.893265 712.68042 158.460938 C 721.886658 152.02861 735.736084 148.531097 754.229004 147.968262 L 774.490723 147.244629 L 774.490723 133.616211 C 774.490723 125.414993 773.646484 118.681259 771.958008 113.414795 C 770.269531 108.148331 766.008179 105.515137 759.173828 105.515137 Z M 737.223633 189.215332 C 737.223633 203.366455 741.887024 210.441895 751.213867 210.441895 C 758.611023 210.441895 764.339722 207.46698 768.400146 201.51709 C 772.460571 195.5672 774.490723 188.009323 774.490723 178.843262 L 774.490723 160.27002 L 763.39502 160.993652 C 753.826965 161.476074 747.07312 164.02887 743.133301 168.6521 C 739.193481 173.27533 737.223633 180.129669 737.223633 189.215332 Z M 531.711914 285.337891 L 531.711914 272.191895 L 534.606445 272.191895 C 539.10907 272.191895 543.169434 271.106445 546.787598 268.935547 C 550.405762 266.764648 552.214844 262.503296 552.214844 256.151367 L 552.214844 123.967773 C 552.214844 117.053024 550.78772 112.449966 547.93335 110.158447 C 545.078979 107.866928 540.958374 106.721191 535.571289 106.721191 L 533.882813 106.721191 L 533.882813 93.575195 L 582.245605 93.575195 L 586.708008 112.87207 L 587.793457 112.87207 C 591.572449 106.118134 596.557434 100.811539 602.748535 96.952148 C 608.939636 93.092758 616.53772 91.163086 625.542969 91.163086 C 633.744202 91.163086 641.000549 92.489731 647.312256 95.143066 C 653.623962 97.796402 658.910461 101.977341 663.171875 107.686035 C 671.85553 119.183807 676.197266 136.711639 676.197266 160.27002 C 676.197266 183.748001 671.935913 201.155212 663.413086 212.492188 C 655.13147 223.507538 642.829834 229.015137 626.507813 229.015137 C 617.100525 229.015137 609.46228 227.226166 603.592773 223.648193 C 597.723267 220.070221 593.019714 215.266144 589.481934 209.23584 L 587.793457 209.23584 C 587.954285 211.085144 588.115051 212.934387 588.275879 214.783691 C 588.436707 216.632996 588.597473 218.482239 588.758301 220.331543 C 588.999512 223.386902 589.220642 226.643219 589.421631 230.100586 C 589.62262 233.557953 589.723145 236.573059 589.723145 239.145996 L 589.723145 256.151367 C 589.723145 262.503296 591.532227 266.764648 595.150391 268.935547 C 598.768555 271.106445 602.788696 272.191895 607.210938 272.191895 L 612.638184 272.191895 L 612.638184 285.337891 Z M 614.929688 210.683105 C 623.211304 210.683105 629.161133 206.502167 632.779297 198.140137 C 636.317078 189.697708 638.085938 177.154877 638.085938 160.51123 C 638.085938 144.269608 636.317078 131.686569 632.779297 122.761719 C 629.161133 113.997681 623.291687 109.615723 615.170898 109.615723 C 605.683228 109.615723 598.969604 113.957474 595.029785 122.641113 C 593.100098 126.982925 591.733215 132.309616 590.929199 138.621338 C 590.125183 144.93306 589.723145 152.149216 589.723145 160.27002 C 589.723145 168.792847 590.125183 176.210022 590.929199 182.521729 C 591.733215 188.833435 593.100098 194.079742 595.029785 198.260742 C 598.88916 206.542358 605.5224 210.683105 614.929688 210.683105 Z M 443.308105 212.854004 L 443.308105 226 L 388.432617 226 L 388.432617 144.711914 C 388.432617 134.741806 387.045654 126.701523 384.271729 120.59082 C 381.497803 114.480118 376.291718 111.424805 368.65332 111.424805 C 363.185852 111.424805 358.884308 113.233871 355.748535 116.852051 C 352.612762 120.47023 350.401703 125.193893 349.115234 131.023193 C 347.828766 136.852493 347.185547 143.063614 347.185547 149.656738 L 347.185547 196.813477 C 347.185547 203.406616 348.713196 207.728271 351.768555 209.778564 C 354.823914 211.828857 359.246063 212.854004 365.035156 212.854004 L 365.758789 212.854004 L 365.758789 226 L 289.897949 226 L 289.897949 212.854004 L 290.380371 212.854004 C 296.491089 212.854004 301.234833 211.788666 304.611816 209.657959 C 307.9888 207.527252 309.677246 202.924194 309.677246 195.848633 L 309.677246 122.038086 C 309.677246 115.364548 308.149597 111.022797 305.094238 109.012695 C 302.038879 107.002594 297.61673 105.997559 291.827637 105.997559 L 291.104004 105.997559 L 291.104004 93.575195 L 342.964355 93.575195 L 346.220703 111.183594 L 347.426758 111.183594 C 352.170593 102.339142 357.537476 96.670746 363.527588 94.178223 C 369.5177 91.685699 376.733856 90.439453 385.17627 90.439453 C 394.261932 90.439453 402.020813 92.067612 408.453125 95.323975 C 414.885437 98.580338 419.58902 103.866821 422.563965 111.183594 L 424.734863 111.183594 C 429.478699 102.258743 435.086792 96.570236 441.559326 94.11792 C 448.03186 91.665604 455.529419 90.439453 464.052246 90.439453 C 470.404175 90.439453 476.132874 91.36409 481.238525 93.213379 C 486.344177 95.062668 490.625641 97.916977 494.083008 101.776367 C 497.620789 105.635757 500.294189 110.56044 502.103271 116.550537 C 503.912354 122.540634 504.816895 129.716599 504.816895 138.078613 L 504.816895 195.366211 C 504.816895 202.522171 506.083252 207.225739 508.615967 209.477051 C 511.148682 211.728363 515.389954 212.854004 521.339844 212.854004 L 522.063477 212.854004 L 522.063477 226 L 467.187988 226 L 467.187988 144.711914 C 467.187988 134.098587 465.720642 125.897491 462.785889 120.108398 C 459.851135 114.319305 454.765656 111.424805 447.529297 111.424805 C 442.30304 111.424805 438.10199 113.073059 434.926025 116.369629 C 431.750061 119.666199 429.458588 123.987854 428.051514 129.334717 C 426.64444 134.68158 425.940918 140.490692 425.940918 146.762207 L 425.940918 195.366211 C 425.940918 202.522171 427.207275 207.225739 429.73999 209.477051 C 432.272705 211.728363 436.554169 212.854004 442.584473 212.854004 Z M 273.375 159.305176 C 273.375 182.541946 267.927704 199.868759 257.032959 211.286133 C 246.138214 222.703506 230.11795 228.412109 208.97168 228.412109 C 188.790268 228.412109 173.232315 222.703506 162.297363 211.286133 C 156.749481 205.577454 152.50824 198.381393 149.573486 189.697754 C 146.638733 181.014114 145.171387 170.883362 145.171387 159.305176 C 145.171387 136.068405 150.618683 118.781799 161.513428 107.444824 C 172.408173 96.107849 188.468643 90.439453 209.695313 90.439453 C 229.796326 90.439453 245.354279 96.107849 256.369629 107.444824 C 261.837097 113.153519 266.038147 120.329468 268.9729 128.9729 C 271.907654 137.616333 273.375 147.72699 273.375 159.305176 Z M 183.523926 159.305176 C 183.523926 168.069214 184.006348 175.787888 184.971191 182.461426 C 185.936035 189.134964 187.423492 194.722961 189.433594 199.225586 C 193.534195 208.311249 200.207642 212.854004 209.454102 212.854004 C 218.700562 212.854004 225.374008 208.311249 229.474609 199.225586 C 231.565109 194.722961 233.032471 189.134964 233.876709 182.461426 C 234.720947 175.787888 235.143066 168.069214 235.143066 159.305176 C 235.143066 150.460724 234.700851 142.721954 233.816406 136.088623 C 232.931961 129.455292 231.444504 123.927597 229.354004 119.505371 C 225.253403 110.660919 218.539764 106.23877 209.212891 106.23877 C 199.886017 106.23877 193.212585 110.660919 189.192383 119.505371 C 187.182281 123.927597 185.735031 129.455292 184.850586 136.088623 C 183.966141 142.721954 183.523926 150.460724 183.523926 159.305176 Z M 76.305664 228.412109 C 67.220009 228.412109 58.918415 227.246277 51.400635 224.914551 C 43.882854 222.582825 37.430527 218.723495 32.043457 213.336426 C 26.656385 207.949356 22.475437 200.914108 19.500488 192.230469 C 16.525539 183.546829 15.038086 172.893463 15.038086 160.27002 C 15.038086 146.922943 16.605942 135.787155 19.741699 126.862305 C 22.877457 117.937454 27.138807 110.781601 32.525879 105.394531 C 37.993355 100.007462 44.405479 96.168228 51.762451 93.876709 C 59.119423 91.58519 67.059204 90.439453 75.582031 90.439453 C 83.54203 90.439453 90.577278 91.102783 96.687988 92.429443 C 102.798698 93.756104 107.904274 95.585281 112.004883 97.916992 C 120.366905 102.741241 124.547852 108.892059 124.547852 116.369629 C 124.547852 119.022964 124.085533 121.615952 123.160889 124.148682 C 122.236244 126.681412 120.608086 128.912582 118.276367 130.842285 C 115.864243 132.771988 112.58783 134.339844 108.447021 135.545898 C 104.306213 136.751953 99.01973 137.35498 92.587402 137.35498 C 92.587402 131.887512 92.125084 126.721619 91.200439 121.857178 C 90.275795 116.992737 88.66774 113.052994 86.376221 110.037842 C 84.084702 107.02269 80.808289 105.515137 76.546875 105.515137 C 72.928696 105.515137 69.712578 106.379471 66.898438 108.108154 C 64.084297 109.836838 61.632008 112.791641 59.541504 116.972656 C 57.531403 121.153671 55.963547 126.741669 54.837891 133.736816 C 53.712234 140.731964 53.149414 149.49588 53.149414 160.028809 C 53.149414 176.752853 55.440895 189.255493 60.023926 197.537109 C 64.606956 205.818726 72.084419 209.959473 82.456543 209.959473 C 90.657753 209.959473 97.914116 208.13031 104.22583 204.471924 C 110.537544 200.813538 115.221016 195.969269 118.276367 189.938965 C 120.286469 191.14502 121.773918 192.773193 122.73877 194.823486 C 123.703621 196.873779 124.186035 199.024567 124.186035 201.275879 C 124.186035 204.411636 123.261406 207.587555 121.412109 210.803711 C 119.562813 214.019867 116.708519 216.914368 112.849121 219.487305 C 108.909325 222.14064 103.924347 224.291412 97.894043 225.939697 C 91.863739 227.587982 84.667686 228.412109 76.305664 228.412109 Z"/>
</svg>
